<?xml version="1.0" standalone="no"?>
<!DOCTYPE svg PUBLIC "-//W3C//DTD SVG 20010904//EN"
 "http://www.w3.org/TR/2001/REC-SVG-20010904/DTD/svg10.dtd">
<svg version="1.0" xmlns="http://www.w3.org/2000/svg"
 width="700.000000pt" height="700.000000pt" viewBox="0 0 700.000000 700.000000"
 preserveAspectRatio="xMidYMid meet">
<metadata>
Created by potrace 1.14, written by Peter Selinger 2001-2017
</metadata>
<g transform="translate(0.000000,700.000000) scale(0.100000,-0.100000)"
fill="#000000" stroke="none">
<path d="M3045 6988 c-4 -14 -173 -691 -180 -723 -20 -99 -56 -220 -67 -230
-7 -6 -42 -19 -77 -29 -90 -24 -227 -78 -366 -146 -635 -307 -1128 -869 -1347
-1537 l-43 -131 -105 -26 c-58 -15 -114 -29 -126 -31 -11 -3 -83 -21 -160 -41
-76 -20 -149 -38 -161 -40 -12 -2 -34 -9 -48 -14 -14 -5 -25 -8 -25 -5 0 2
-23 -3 -52 -11 -28 -9 -59 -17 -67 -19 -47 -10 -194 -47 -206 -52 -13 -4 -15
-70 -15 -454 l0 -448 38 -11 c31 -9 377 -95 422 -105 8 -2 89 -22 180 -45 91
-23 172 -43 180 -45 8 -2 44 -11 80 -20 l65 -16 44 -132 c223 -677 708 -1229
1356 -1542 72 -34 148 -68 170 -75 22 -7 45 -16 50 -20 6 -4 58 -22 116 -40
l106 -34 121 -480 120 -481 452 0 453 0 119 481 120 482 76 22 c159 46 402
152 547 240 28 16 56 33 64 36 21 11 98 64 186 128 434 320 774 795 937 1312
l32 102 115 28 c64 15 121 29 126 30 6 1 127 32 270 69 143 36 269 68 280 70
25 6 60 14 83 19 9 2 31 9 47 16 17 6 32 10 35 8 3 -2 6 200 8 449 l2 451 -32
11 c-36 11 -388 100 -426 107 -13 3 -49 12 -80 20 -32 8 -68 17 -80 20 -13 3
-49 12 -80 20 -32 8 -66 17 -77 19 -11 3 -59 15 -108 27 l-87 23 -11 40 c-112
429 -409 899 -775 1226 -271 242 -646 454 -975 549 l-76 22 -113 452 c-61 248
-116 466 -122 484 l-10 32 -449 0 c-351 0 -451 -3 -454 -12z m-472 -1890 c-73
-292 -135 -533 -138 -536 -4 -4 -252 -68 -335 -87 -8 -2 -71 -17 -140 -35 -69
-17 -134 -33 -145 -36 -11 -2 -116 -28 -232 -58 -117 -29 -213 -52 -213 -51 0
31 120 279 188 388 225 365 573 683 937 857 90 43 195 89 206 90 3 0 -54 -239
-128 -532z m1812 498 c474 -198 893 -585 1132 -1046 42 -81 113 -240 113 -253
0 -2 -42 7 -92 20 -51 13 -102 26 -113 28 -54 12 -859 216 -863 219 -2 3 -63
243 -136 535 -148 592 -143 540 -41 497z m-539 -1755 c5 -4 36 -14 69 -21 76
-17 2 1 605 -150 289 -73 530 -133 535 -134 44 -9 115 -31 115 -36 0 -5 -678
-180 -830 -215 -8 -2 -80 -20 -160 -40 -80 -20 -152 -38 -160 -40 -99 -22
-174 -46 -181 -56 -6 -11 -82 -306 -94 -368 -2 -12 -7 -31 -10 -41 -3 -10 -8
-27 -10 -37 -2 -10 -15 -61 -29 -113 -14 -53 -27 -107 -30 -120 -12 -62 -157
-627 -165 -645 -10 -20 -10 -20 -10 0 -2 50 -329 1328 -342 1335 -11 6 -424
113 -519 135 -8 1 -80 19 -160 39 -80 21 -154 39 -164 41 -10 2 -53 13 -95 24
-42 11 -87 22 -101 25 -14 2 -52 12 -85 21 -33 9 -64 17 -70 19 -5 1 -38 8
-72 16 -35 8 -63 17 -63 20 0 4 837 216 893 226 6 1 104 26 217 55 113 28 211
52 218 52 6 0 12 2 12 4 0 1 11 46 25 99 14 53 27 106 29 118 3 11 43 174 91
361 47 187 88 349 90 360 4 18 17 73 20 85 1 3 6 23 13 45 6 22 13 51 16 65 3
14 7 34 9 45 6 27 37 136 44 155 3 8 80 -286 173 -653 92 -367 171 -672 176
-676z m-2400 -1154 c16 -3 94 -22 174 -42 80 -20 152 -39 160 -40 8 -2 80 -20
160 -40 80 -20 152 -38 160 -40 8 -2 53 -13 100 -25 47 -12 92 -23 100 -25 39
-9 133 -35 137 -38 2 -3 64 -243 137 -536 122 -489 131 -531 112 -525 -39 12
-197 84 -254 115 -256 141 -512 349 -669 542 -32 40 -64 78 -71 86 -30 31
-164 243 -209 331 -44 85 -113 240 -113 254 0 3 11 1 23 -3 13 -5 37 -11 53
-14z m4144 -83 c-186 -435 -538 -836 -936 -1065 -108 -62 -334 -169 -358 -169
-2 0 10 51 26 113 15 61 30 121 33 132 11 53 204 817 207 820 3 3 297 81 343
90 11 3 72 18 136 34 63 17 126 32 140 35 13 3 69 17 124 31 55 14 109 27 120
30 11 2 36 9 55 15 19 5 46 12 60 15 14 3 39 9 55 13 17 5 31 8 33 7 2 -2 -15
-47 -38 -101z"/>
</g>
</svg>
